<?xml version="1.0" encoding="utf-8"?>
<!-- Generator: Adobe Illustrator 17.1.0, SVG Export Plug-In . SVG Version: 6.00 Build 0)  -->
<!DOCTYPE svg PUBLIC "-//W3C//DTD SVG 1.1//EN" "http://www.w3.org/Graphics/SVG/1.1/DTD/svg11.dtd">
<svg version="1.1" id="Слой_1" xmlns="http://www.w3.org/2000/svg" xmlns:xlink="http://www.w3.org/1999/xlink" x="0px" y="0px"
	 width="38px" height="80px" viewBox="0 0 38 80" enable-background="new 0 0 38 80" xml:space="preserve">
<path fill="#222222" d="M14.025,49.078v7.727l1.093-2.188c0.338-0.68,1.451-0.68,1.789,0L19,58.808l2.093-4.191
	c0.338-0.68,1.451-0.68,1.789,0l1.094,2.189v-7.728c0-0.553,0.447-1,1-1s1,0.447,1,1v11.969c0,0.464-0.319,0.867-0.771,0.974
	c-0.447,0.102-0.917-0.112-1.124-0.527l-2.094-4.192l-2.093,4.192c-0.338,0.68-1.451,0.68-1.789,0l-2.093-4.191l-2.093,4.191
	c-0.172,0.345-0.522,0.554-0.895,0.554c-0.076,0-0.153-0.009-0.229-0.026c-0.452-0.106-0.771-0.51-0.771-0.974V49.078
	c0-0.553,0.448-1,1-1S14.025,48.525,14.025,49.078z M34.861,78.571c0.062,0.13,0.096,0.275,0.096,0.429c0,0.553-0.447,1-1,1
	c-0.005,0-0.013,0-0.02,0H4.062c-0.308,0-0.599-0.142-0.788-0.385c-0.189-0.242-0.257-0.559-0.182-0.857L6.08,66.789
	c0.111-0.445,0.511-0.758,0.97-0.758h23.9c0.459,0,0.859,0.313,0.971,0.758L34.861,78.571z M32.657,78l-2.488-9.969H7.831L5.342,78
	H32.657z M22.987,25.141c0,2.201-1.789,3.992-3.987,3.992c-2.199,0-3.988-1.791-3.988-3.992s1.789-3.992,3.988-3.992
	C21.198,21.148,22.987,22.939,22.987,25.141z M20.987,25.141c0-1.099-0.892-1.992-1.987-1.992c-1.096,0-1.988,0.894-1.988,1.992
	s0.892,1.992,1.988,1.992C20.096,27.133,20.987,26.239,20.987,25.141z M19,12.171c2.198,0,3.987,1.791,3.987,3.993
	c0,2.201-1.789,3.992-3.987,3.992c-2.199,0-3.988-1.791-3.988-3.992C15.012,13.962,16.801,12.171,19,12.171z M19,14.171
	c-1.096,0-1.988,0.894-1.988,1.993s0.892,1.992,1.988,1.992c1.096,0,1.987-0.894,1.987-1.992S20.096,14.171,19,14.171z
	 M22.987,34.117c0,2.201-1.789,3.992-3.987,3.992c-2.199,0-3.988-1.791-3.988-3.992s1.789-3.992,3.988-3.992
	C21.198,30.125,22.987,31.916,22.987,34.117z M20.987,34.117c0-1.099-0.892-1.992-1.987-1.992c-1.096,0-1.988,0.894-1.988,1.992
	s0.892,1.992,1.988,1.992C20.096,36.109,20.987,35.216,20.987,34.117z M37.776,43.62c-0.183,0.294-0.504,0.474-0.851,0.474h-8.585
	C27.374,44.9,24.268,47.086,19,47.086c-5.269,0-8.375-2.187-9.341-2.992H1.075c-0.347,0-0.668-0.18-0.851-0.474
	c-0.182-0.295-0.199-0.663-0.044-0.973l8.857-17.742v-8.741c0-9.404,9.023-15.537,9.408-15.793L19,0l0.555,0.371
	c0.384,0.256,9.408,6.389,9.408,15.793v8.741l8.857,17.742C37.976,42.957,37.959,43.325,37.776,43.62z M2.691,42.094h6.346V29.382
	L2.691,42.094z M26.963,16.164c0-7.08-6.069-12.275-7.962-13.723c-1.892,1.451-7.964,6.661-7.964,13.723v26.472
	c0.846,0.667,3.521,2.45,7.963,2.45c4.439,0,7.113-1.78,7.963-2.451V16.164z M35.309,42.094l-6.346-12.711v12.711H35.309z"/>
</svg>
