<?xml version="1.0" encoding="UTF-8" standalone="no"?>
<!-- Generator: Adobe Illustrator 17.1.0, SVG Export Plug-In . SVG Version: 6.00 Build 0)  -->

<svg
   xmlns:dc="http://purl.org/dc/elements/1.1/"
   xmlns:cc="http://creativecommons.org/ns#"
   xmlns:rdf="http://www.w3.org/1999/02/22-rdf-syntax-ns#"
   xmlns:svg="http://www.w3.org/2000/svg"
   xmlns="http://www.w3.org/2000/svg"
   xmlns:sodipodi="http://sodipodi.sourceforge.net/DTD/sodipodi-0.dtd"
   xmlns:inkscape="http://www.inkscape.org/namespaces/inkscape"
   version="1.1"
   id="Слой_1"
   x="0px"
   y="0px"
   width="54px"
   height="77px"
   viewBox="0 0 54 77"
   enable-background="new 0 0 54 77"
   xml:space="preserve"
   sodipodi:docname="Mitishi.svg"
   inkscape:version="0.92.0 r15299"><metadata
     id="metadata9"><rdf:RDF><cc:Work
         rdf:about=""><dc:format>image/svg+xml</dc:format><dc:type
           rdf:resource="http://purl.org/dc/dcmitype/StillImage" /></cc:Work></rdf:RDF></metadata><defs
     id="defs7" /><sodipodi:namedview
     pagecolor="#ffffff"
     bordercolor="#666666"
     borderopacity="1"
     objecttolerance="10"
     gridtolerance="10"
     guidetolerance="10"
     inkscape:pageopacity="0"
     inkscape:pageshadow="2"
     inkscape:window-width="1105"
     inkscape:window-height="732"
     id="namedview5"
     showgrid="false"
     inkscape:zoom="4"
     inkscape:cx="33.172705"
     inkscape:cy="33.428501"
     inkscape:window-x="333"
     inkscape:window-y="188"
     inkscape:window-maximized="0"
     inkscape:current-layer="Слой_1" /><path
     d="M 54,6 V 4 H 28 V 0 H 26 V 4 H 0 V 6 H 6 V 17 H 0 v 2 h 19 v 4 h -5.836 l -0.75,39 H 0 V 77 H 54 V 62 H 41.608 L 40.858,23 H 34 V 19 H 54 V 17 H 47 V 6 Z M 28,16.904 V 12 h -2 v 4.904 C 23.444,16.432 21.5,14.19 21.5,11.5 21.5,8.81 23.444,6.568 26,6.096 V 10 h 2 V 6.096 c 2.556,0.472 4.5,2.714 4.5,5.404 0,2.69 -1.944,4.932 -4.5,5.404 z M 8,6 H 21.918 C 20.435,7.371 19.5,9.326 19.5,11.5 c 0,2.174 0.935,4.129 2.418,5.5 H 8 Z M 52,75 H 2 V 64 H 52 Z M 39.584,62 H 14.446 L 14.837,25 H 39.142 Z M 32,23 H 21 v -4 h 5 v 3 h 2 v -3 h 4 z M 45,17 H 32.082 C 33.565,15.629 34.5,13.674 34.5,11.5 34.5,9.326 33.565,7.371 32.082,6 H 45 Z"
     id="path2"
     inkscape:connector-curvature="0"
     style="fill:#222222"
     sodipodi:nodetypes="cccccccccccccccccccccccccccccccccsccccscccsccccccccccccccccccccccccsccc" /></svg>