<?xml version="1.0" encoding="utf-8"?>
<!-- Generator: Adobe Illustrator 17.1.0, SVG Export Plug-In . SVG Version: 6.00 Build 0)  -->
<!DOCTYPE svg PUBLIC "-//W3C//DTD SVG 1.1//EN" "http://www.w3.org/Graphics/SVG/1.1/DTD/svg11.dtd">
<svg version="1.1" id="Слой_1" xmlns="http://www.w3.org/2000/svg" xmlns:xlink="http://www.w3.org/1999/xlink" x="0px" y="0px"
	 width="84px" height="80px" viewBox="0 0 84 80" enable-background="new 0 0 84 80" xml:space="preserve">
<g>
	<path fill="#222222" d="M48.593,40.16c0.486,0,0.879-0.394,0.879-0.879v-4.396c0-0.485-0.393-0.879-0.879-0.879
		s-0.879,0.394-0.879,0.879v4.396C47.714,39.767,48.107,40.16,48.593,40.16z"/>
	<path fill="#222222" d="M52.11,40.16c0.486,0,0.879-0.394,0.879-0.879v-4.396c0-0.485-0.393-0.879-0.879-0.879
		s-0.879,0.394-0.879,0.879v4.396C51.231,39.767,51.624,40.16,52.11,40.16z"/>
	<path fill="#222222" d="M26.615,41.919c-0.486,0-0.879,0.394-0.879,0.879v2.637c0,0.485,0.393,0.879,0.879,0.879
		c0.486,0,0.879-0.394,0.879-0.879v-2.637C27.495,42.313,27.102,41.919,26.615,41.919z"/>
	<path fill="#222222" d="M30.132,41.919c-0.486,0-0.879,0.394-0.879,0.879v2.637c0,0.485,0.393,0.879,0.879,0.879
		c0.486,0,0.879-0.394,0.879-0.879v-2.637C31.011,42.313,30.618,41.919,30.132,41.919z"/>
	<path fill="#222222" d="M81.925,74.446h-0.804v-6.154h0.641c0.303,0,0.585-0.156,0.746-0.414c0.161-0.258,0.177-0.579,0.044-0.852
		l-2.31-4.714v-9.844c0-0.485-0.393-0.879-0.879-0.879h-0.879V41.04c0-0.485-0.393-0.879-0.879-0.879h-1.758v-4.396
		c0.471,0,0.847-0.373,0.87-0.838c1.157-1.561,1.321-2.935,1.23-3.836c-0.126-1.244-0.788-2.429-1.816-3.253
		c-2.2-1.758-4.062-4.398-4.081-4.425c-0.144-0.206-0.367-0.319-0.6-0.345v-3.127h0.879c0.486,0,0.879-0.394,0.879-0.879
		s-0.393-0.879-0.879-0.879H71.45v-0.879c0-0.485-0.393-0.879-0.879-0.879s-0.879,0.394-0.879,0.879v0.879h-0.879
		c-0.486,0-0.879,0.394-0.879,0.879s0.393,0.879,0.879,0.879h0.879v3.474c-0.03,0.033-0.068,0.055-0.093,0.091
		c-0.018,0.028-1.951,2.862-4.15,4.622c-1.125,0.899-1.814,2.068-1.938,3.29c-0.11,1.085,0.212,2.184,0.945,3.276
		c-0.014,0.063-0.038,0.124-0.038,0.192c0,0.485,0.393,0.879,0.879,0.879v4.531c-0.083-0.07-0.15-0.147-0.238-0.215
		c-1.458-1.102-2.619-2.499-3.025-3.014c0.014-0.069,0.041-0.132,0.041-0.204c0-0.587-0.476-1.063-1.063-1.063
		c-0.585,0-1.061,0.476-1.061,1.063c0,0.091,0.03,0.172,0.052,0.257c-0.4,0.578-1.583,2.192-3.037,3.291
		c-0.207,0.156-0.317,0.388-0.338,0.628h-0.121v-8.76c1.15-1.557,1.313-2.926,1.222-3.826c-0.126-1.244-0.788-2.429-1.816-3.253
		c-2.223-1.777-4.367-4.441-4.387-4.469c-0.082-0.102-0.183-0.173-0.293-0.226v-3.203h0.879c0.486,0,0.879-0.394,0.879-0.879
		c0-0.485-0.393-0.879-0.879-0.879h-0.879v-0.879c0-0.485-0.393-0.879-0.879-0.879c-0.486,0-0.879,0.394-0.879,0.879v0.879h-0.879
		c-0.486,0-0.879,0.394-0.879,0.879c0,0.485,0.393,0.879,0.879,0.879h0.879v3.516c0,0.025,0.012,0.047,0.015,0.071
		c-0.013,0.014-0.03,0.019-0.041,0.034c-0.019,0.024-1.961,2.44-4.15,4.211l-3.178-8.926c0.193-0.162,0.322-0.395,0.322-0.665
		v-2.986c0.136-0.052,0.264-0.128,0.363-0.248c0.755-0.905,0.849-1.747,0.793-2.293c-0.078-0.778-0.513-1.536-1.192-2.079
		c-0.968-0.775-1.507-1.876-1.515-1.893c-0.052-0.109-0.124-0.201-0.207-0.277V4.116h0.879c0.486,0,0.879-0.394,0.879-0.879
		s-0.393-0.879-0.879-0.879h-0.879V1.479c0-0.485-0.393-0.879-0.879-0.879c-0.486,0-0.879,0.394-0.879,0.879v0.879h-0.879
		c-0.486,0-0.879,0.394-0.879,0.879s0.393,0.879,0.879,0.879h0.879v2.546c-0.369,0.345-0.889,0.812-1.465,1.274
		c-0.665,0.533-1.111,1.335-1.191,2.143c-0.057,0.569,0.033,1.438,0.79,2.346c0.03,0.036,0.073,0.052,0.107,0.082v3.037
		c0,0.287,0.147,0.531,0.36,0.691l-3.342,9.721c-0.18,0.127-0.315,0.317-0.36,0.549l-1.235,6.324
		c-1.498-1.398-2.403-3.251-2.413-3.271c-0.171-0.355-0.549-0.53-0.921-0.475v-2.112h0.879c0.486,0,0.879-0.394,0.879-0.879
		s-0.393-0.879-0.879-0.879h-0.879v-0.879c0-0.485-0.393-0.879-0.879-0.879c-0.486,0-0.879,0.394-0.879,0.879v0.879h-0.879
		c-0.486,0-0.879,0.394-0.879,0.879c0,0.485,0.393,0.879,0.879,0.879h0.879v2.46c-0.059,0.046-0.122,0.087-0.169,0.149
		c-0.017,0.021-1.648,2.168-3.492,3.641c-1.506,1.204-2.315,3.601-0.718,6.14c0.013,0.131,0.055,0.25,0.119,0.357
		c-0.078,0.131-0.135,0.276-0.135,0.44v2.637h-1.758V41.04c0-0.485-0.393-0.879-0.879-0.879v-4.396c0.486,0,0.879-0.394,0.879-0.879
		c0-0.023-0.011-0.043-0.013-0.066c0.994-1.345,1.133-2.53,1.054-3.323c-0.117-1.16-0.764-2.262-1.777-3.022
		c-2.102-1.577-4.047-4.038-4.066-4.063c-0.124-0.156-0.294-0.245-0.473-0.289v-2.423h0.879c0.486,0,0.879-0.394,0.879-0.879
		s-0.393-0.879-0.879-0.879h-0.879v-0.879c0-0.485-0.393-0.879-0.879-0.879c-0.486,0-0.879,0.394-0.879,0.879v0.879H13.43
		c-0.486,0-0.879,0.394-0.879,0.879s0.393,0.879,0.879,0.879h0.879v2.637c0,0.104,0.025,0.201,0.059,0.293
		c-0.2,0.246-1.156,1.402-2.404,2.578c-0.018,0.016-0.034,0.03-0.05,0.047c-0.45,0.421-0.934,0.842-1.435,1.223
		c-1.058,0.805-1.736,1.96-1.858,3.168c-0.068,0.668,0.015,1.614,0.626,2.685c-0.128,0.152-0.215,0.341-0.215,0.556
		c0,0.485,0.393,0.879,0.879,0.879v4.396c-0.486,0-0.879,0.394-0.879,0.879v1.758H8.154c-0.486,0-0.879,0.394-0.879,0.879v12.308
		H6.396c-0.486,0-0.879,0.394-0.879,0.879v3.467L2.21,64.206C2.075,64.365,2,64.567,2,64.777v9.669c0,0.056,0.022,0.105,0.032,0.158
		c-0.847,0.32-1.79,1.117-1.79,2.25v2.867c0,0.485,0.393,0.879,0.879,0.879h81.758c0.486,0,0.879-0.394,0.879-0.879v-2.867
		C83.758,75.482,82.971,74.446,81.925,74.446z M79.363,74.446h-8.791v-6.154h8.791V74.446z M46.835,74.446H41.56v-2.637
		c0-1.454,1.183-2.637,2.637-2.637c1.454,0,2.637,1.183,2.637,2.637V74.446z M44.198,67.413c-2.424,0-4.396,1.972-4.396,4.396v2.637
		h-5.275v-2.637c0-2.424-1.972-4.396-4.396-4.396s-4.396,1.972-4.396,4.396v2.637h-3.525l0.018-8.727
		c0.288-0.293,0.354-0.747,0.115-1.1l-1.685-2.481h36.173l4.235,4.487c0.173,0.183,0.406,0.275,0.64,0.275
		c0.216,0,0.433-0.079,0.604-0.24c0.353-0.333,0.369-0.89,0.036-1.243l-4.269-4.522c0.108-0.146,0.186-0.318,0.186-0.515v-0.879
		h10.549v14.945h-20.22v-2.637C48.593,69.385,46.622,67.413,44.198,67.413z M32.769,74.446h-5.275v-2.637
		c0-1.454,1.183-2.637,2.637-2.637s2.637,1.183,2.637,2.637V74.446z M24.857,40.16h7.033v7.912h-7.033V40.16z M40.681,14.666h-1.758
		v-1.758h1.758V14.666z M40.327,16.424l3.131,8.791h-7.16l3.022-8.791H40.327z M55.626,27.853c0.076,0,0.143-0.025,0.214-0.043
		c0.101,0.242,0.179,0.512,0.209,0.813c0.004,0.036-0.005,0.073-0.003,0.11h-10.97c-0.037,0-0.068,0.017-0.103,0.021
		c0.039-0.335,0.132-0.634,0.252-0.9L55.626,27.853L55.626,27.853z M65.63,46.141c0.46-0.522,0.792-1.051,0.997-1.585h10.098v7.033
		H66.176c-0.082,0-0.156,0.025-0.231,0.047l-0.759-1.356c-0.004-0.008-0.011-0.014-0.017-0.021c0.074-0.128,0.127-0.269,0.127-0.428
		V46.37C65.421,46.32,65.536,46.247,65.63,46.141z M70.571,62.138v-3.516c0-0.485-0.393-0.879-0.879-0.879
		c-0.104,0-0.201,0.026-0.294,0.059l-2.495-4.455h10.701h0.879v8.791H70.571z M58.264,54.226h2.481l0.141,0.879h-2.622V54.226z
		 M62.526,54.226h2.771c0.026,0,0.05-0.013,0.076-0.016l0.5,0.895h-3.207L62.526,54.226z M63.904,51.589l0.493,0.879h-2.153
		l-0.141-0.879H63.904z M60.323,51.589l0.141,0.879h-2.2v-0.879H60.323z M58.264,56.864h2.904l0.141,0.879h-3.044V56.864z
		 M63.088,57.743l-0.141-0.879h3.91l0.493,0.879H63.088z M63.538,49.831h-5.275v-2.637h5.275V49.831z M56.505,46.314v0.879V60.38
		h-2.637V44.556c0-0.485-0.393-0.879-0.879-0.879c-0.486,0-0.879,0.394-0.879,0.879V60.38h-2.637V44.556
		c0-0.485-0.393-0.879-0.879-0.879s-0.879,0.394-0.879,0.879V60.38h-2.637V42.798h10.549h0.879v2.637V46.314z M54.747,41.04h-8.791
		v-7.912h8.791V41.04z M55.074,31.369h-0.327h-8.919c-0.218-0.294-0.395-0.587-0.53-0.879h10.334
		C55.486,30.781,55.301,31.074,55.074,31.369z M44.198,41.04c-0.486,0-0.879,0.394-0.879,0.879v14.066h-6.782
		c-0.003-0.084-0.003-0.169-0.03-0.254l-2.088-6.379c0.063-0.121,0.108-0.254,0.108-0.401c0-0.485-0.393-0.879-0.879-0.879V40.16
		c0-0.164-0.056-0.309-0.135-0.44c0.073-0.124,0.125-0.259,0.129-0.412c0.222-0.312,0.396-0.615,0.535-0.906h10.019V41.04z
		 M24.104,49.831h1.547l-0.234,0.879h-1.588L24.104,49.831z M27.487,49.831h1.909l0.234,0.879h-2.376L27.487,49.831z M33.86,53.347
		h-1.694l-0.234-0.879h1.64L33.86,53.347z M32.709,49.831l0.287,0.879h-1.531l-0.234-0.879H32.709z M30.097,52.468l0.234,0.879
		h-3.777l0.234-0.879H30.097z M30.797,55.105l0.234,0.879h-5.178l0.234-0.879H30.797z M32.867,55.985l-0.234-0.879h1.802
		l0.287,0.879H32.867z M23.283,52.468h1.668l-0.234,0.879h-1.708L23.283,52.468z M22.462,55.105h1.788l-0.234,0.879h-1.829
		L22.462,55.105z M43.319,57.743v2.637H19.464l-1.792-2.637H43.319z M15.547,57.743l2.302,3.389
		c-0.007,0.044-0.025,0.083-0.025,0.127c0,0.416,0.295,0.748,0.681,0.84l0.027,0.04h-6.158l2.986-4.396H15.547z M11.181,63.897
		h8.402c0.046,0,0.084-0.019,0.128-0.025l0.615,0.905h-9.742L11.181,63.897z M9.92,66.534h10.549l-0.008,7.91c0,0,0,0.001,0,0.002
		H9.903L9.92,66.534z M80.352,66.534h-9.78v-2.637h8.488L80.352,66.534z M76.725,41.919v0.879h-9.909
		c-0.045-0.299-0.137-0.592-0.265-0.879h0.503H76.725z M67.055,40.16v-1.758h7.033v1.758H67.055z M76.269,31.259
		c0.09,0.882-0.251,1.805-0.975,2.747h-2.849c0.411-0.527,0.874-1.137,1.259-1.686c0.842-1.201,1.364-2.291,1.633-2.932
		C75.697,29.744,76.18,30.373,76.269,31.259z M73.998,28.211c-0.009,0.018-0.023,0.032-0.03,0.051
		c-0.004,0.015-0.498,1.454-1.646,3.091c-0.68,0.972-1.658,2.194-2.03,2.654h-1.387c-0.566-1.225,0.03-2.317,1.374-3.913
		c1.065-1.265,2.067-2.5,2.536-3.081C73.18,27.407,73.576,27.813,73.998,28.211z M66.501,29.445c2.078-1.662,3.866-4.1,4.36-4.8
		c0.173,0.236,0.458,0.612,0.833,1.072c-0.31,0.385-1.465,1.819-2.703,3.291c-0.948,1.125-2.422,2.884-1.877,4.999h-1.068
		c-0.633-0.848-0.935-1.662-0.858-2.418C65.293,30.553,66.055,29.801,66.501,29.445z M74.088,35.765v0.879h-7.033v-0.879H74.088z
		 M61.061,38.658c0.622,0.733,1.67,1.868,2.936,2.825c0.381,0.287,1.029,0.883,1.105,1.644c0.057,0.567-0.208,1.19-0.79,1.851
		c-0.118,0.133-0.171,0.293-0.194,0.457h-5.854v-3.516c0-0.091-0.025-0.171-0.052-0.254C59.444,40.691,60.462,39.458,61.061,38.658z
		 M50.564,22.219c0.657,0.78,2.138,2.468,3.784,3.875H46.78C48.544,24.589,50.043,22.848,50.564,22.219z M38.557,9.309
		c0.585-0.469,1.114-0.94,1.502-1.3C40.377,8.43,40.79,8.9,41.305,9.311c0.115,0.092,0.495,0.429,0.542,0.883
		c0.03,0.295-0.097,0.618-0.369,0.956H38.3c-0.213-0.302-0.313-0.603-0.284-0.894C38.057,9.844,38.333,9.487,38.557,9.309z
		 M35.524,26.974h8.258c-0.262,0.523-0.434,1.08-0.492,1.651c-0.117,1.144,0.215,2.315,0.948,3.427
		c-0.016,0.065-0.04,0.127-0.04,0.197v4.396h-9.559c0.009-0.206,0.006-0.399-0.011-0.569c-0.06-0.593-0.269-1.167-0.583-1.686
		c0.021-0.053,0.05-0.101,0.061-0.158L35.524,26.974z M24.932,34.597c2.019-1.613,3.725-3.859,3.796-3.954
		c0.006-0.008,0.007-0.018,0.013-0.026c0.389,0.728,1.506,2.626,3.198,3.98c0.252,0.202,0.851,0.768,0.94,1.654
		c0.069,0.685-0.198,1.408-0.76,2.151h-7.533C23.439,36.553,24.238,35.153,24.932,34.597z M10.791,41.919h8.791v0.879h-8.791V41.919
		z M19.575,29.845c0.299,0.224,1.003,0.85,1.1,1.822c0.075,0.744-0.239,1.531-0.898,2.339h-1.073v-4.865
		C18.987,29.385,19.278,29.622,19.575,29.845z M17.009,27.533c-0.039,0.099-0.064,0.207-0.064,0.32v6.154h-0.879v-7.497
		C16.333,26.812,16.652,27.162,17.009,27.533z M14.308,27.287v6.72h-0.879v-5.828C13.747,27.87,14.04,27.569,14.308,27.287z
		 M11.516,29.842c0.053-0.04,0.103-0.081,0.155-0.121v4.286h-0.566c-0.576-0.745-0.85-1.48-0.779-2.19
		C10.4,31.091,10.845,30.352,11.516,29.842z M11.67,35.765h7.033v4.396H11.67V35.765z M9.033,44.556h0.879h10.549h2.637v3.516
		c-0.486,0-0.879,0.394-0.879,0.879c0,0.176,0.064,0.33,0.153,0.467l-1.968,6.324c-0.025,0.081-0.022,0.161-0.025,0.241h-3.902
		l-0.186-0.274c-0.197-0.289-0.535-0.418-0.861-0.367c-0.31-0.031-0.628,0.091-0.815,0.367l-0.185,0.275H9.033V44.556z
		 M13.236,57.743l-1.793,2.637H7.275v-2.637H13.236z M3.758,65.101l2.527-2.963h3.964l-1.685,2.481
		c-0.084,0.125-0.121,0.263-0.135,0.403c-0.168,0.159-0.275,0.382-0.275,0.633c0,0.017,0.013,0.03,0.014,0.047l-0.014,8.743
		c0,0,0,0.001,0,0.002H3.758V65.101z M82,78.842H2v-1.988c0-0.245,0.543-0.626,0.78-0.65h23.836h7.033h7.033h7.033h34.127
		C81.904,76.289,82,76.511,82,76.854V78.842z"/>
	<path fill="#222222" d="M68.813,50.71c0.486,0,0.879-0.394,0.879-0.879v-2.637c0-0.485-0.393-0.879-0.879-0.879
		s-0.879,0.394-0.879,0.879v2.637C67.934,50.316,68.327,50.71,68.813,50.71z"/>
	<path fill="#222222" d="M73.209,50.71c0.486,0,0.879-0.394,0.879-0.879v-2.637c0-0.485-0.393-0.879-0.879-0.879
		c-0.486,0-0.879,0.394-0.879,0.879v2.637C72.33,50.316,72.723,50.71,73.209,50.71z"/>
	<circle fill="#222222" cx="28.739" cy="64.406" r="0.861"/>
	<circle fill="#222222" cx="33.256" cy="64.382" r="0.861"/>
	<circle fill="#222222" cx="37.989" cy="64.453" r="0.861"/>
	<circle fill="#222222" cx="42.505" cy="64.429" r="0.861"/>
	<circle fill="#222222" cx="47.309" cy="64.382" r="0.861"/>
	<circle fill="#222222" cx="51.825" cy="64.357" r="0.861"/>
	<path fill="#222222" d="M13.429,68.292c-0.486,0-0.879,0.394-0.879,0.879v2.637c0,0.485,0.393,0.879,0.879,0.879
		c0.486,0,0.879-0.394,0.879-0.879v-2.637C14.308,68.686,13.915,68.292,13.429,68.292z"/>
	<path fill="#222222" d="M16.945,68.292c-0.486,0-0.879,0.394-0.879,0.879v2.637c0,0.485,0.393,0.879,0.879,0.879
		c0.486,0,0.879-0.394,0.879-0.879v-2.637C17.824,68.686,17.431,68.292,16.945,68.292z"/>
</g>
</svg>
