<?xml version="1.0" encoding="utf-8"?>
<!-- Generator: Adobe Illustrator 17.1.0, SVG Export Plug-In . SVG Version: 6.00 Build 0)  -->
<!DOCTYPE svg PUBLIC "-//W3C//DTD SVG 1.1//EN" "http://www.w3.org/Graphics/SVG/1.1/DTD/svg11.dtd">
<svg version="1.1" id="Слой_1" xmlns="http://www.w3.org/2000/svg" xmlns:xlink="http://www.w3.org/1999/xlink" x="0px" y="0px"
	 width="52px" height="56px" viewBox="0 0 52 56" enable-background="new 0 0 52 56" xml:space="preserve">
<path fill="#222222" d="M0,56h10v-2H8V18h1v-2H8v-3c0-3.15,3.114-3.997,3.243-4.03L12,8.781V0H0V56z M6,54H2V18h4V54z M10,2v5.282
	C8.308,7.973,6,9.743,6,13v3H2V2H10z M40,0l0.005,8.774l0.748,0.194C40.886,9.003,44,9.85,44,13v3h-1v2h1v36h-2v2h10V0H40z
	 M42,7.282V2h8v14h-4v-3C46,9.743,43.691,7.973,42,7.282z M46,54V18h4v36H46z M17.001,7.565l0.483,0.292
	C17.53,7.884,22,10.621,22,14v2h-2v2h2v36h-2v2h12v-2h-2V18h2v-2h-2v-2c0-3.379,4.471-6.116,4.516-6.143L35,7.564V0H17L17.001,7.565
	z M28,54h-4V18h4V54z M19,2h14v4.458c-1.349,0.926-5,3.781-5,7.542v2h-4v-2c0-3.761-3.651-6.615-5-7.542V2z"/>
</svg>
