<?xml version="1.0" encoding="utf-8"?>
<!-- Generator: Adobe Illustrator 17.1.0, SVG Export Plug-In . SVG Version: 6.00 Build 0)  -->
<!DOCTYPE svg PUBLIC "-//W3C//DTD SVG 1.1//EN" "http://www.w3.org/Graphics/SVG/1.1/DTD/svg11.dtd">
<svg version="1.1" id="Слой_1" xmlns="http://www.w3.org/2000/svg" xmlns:xlink="http://www.w3.org/1999/xlink" x="0px" y="0px"
	 width="70px" height="70px" viewBox="0 0 70 70" enable-background="new 0 0 70 70" xml:space="preserve">
<path fill="#222222" d="M61.356,20.256c0.599,0.39,1.15,0.749,1.744,1.135c-0.091,0.181-0.169,0.363-0.27,0.531
	c-3.134,5.223-6.799,10.053-10.754,14.677c-4.672,5.464-9.802,10.476-15.166,15.239c-6.043,5.366-12.487,10.193-19.905,13.553
	c-2.899,1.313-5.884,2.36-9.143,2.292c-4.081-0.084-5.804-3.074-5.415-6.493c0.643,0.094,1.286,0.188,1.934,0.283
	c0.084,0.605,0.113,1.223,0.263,1.811c0.385,1.512,1.512,2.303,3.275,2.358c1.669,0.052,3.26-0.354,4.818-0.888
	c4.397-1.508,8.356-3.86,12.192-6.43c8.744-5.858,16.394-12.96,23.466-20.712c4.813-5.277,9.175-10.894,12.77-17.083
	C61.211,20.451,61.268,20.382,61.356,20.256z M21.122,33.305c0.127-0.132,0.249-0.268,0.371-0.403
	c7.061-7.834,14.808-14.9,23.49-20.91c3.628-2.512,7.403-4.774,11.554-6.338c1.8-0.678,3.637-1.225,5.59-1.167
	c2.037,0.061,3.1,1.026,3.386,3.038c0.054,0.377,0.075,0.759,0.111,1.128c0.644,0.093,1.245,0.179,1.882,0.271
	c0-0.509,0.027-1.007-0.005-1.501c-0.185-2.858-2.024-4.658-4.864-4.846c-1.992-0.132-3.913,0.193-5.798,0.777
	C52.304,4.758,48.23,7.082,44.283,9.66c-6.806,4.446-12.775,9.892-18.541,15.572c-1.983,1.954-3.838,4.04-5.729,6.086
	c-0.15,0.162-0.255,0.57-0.159,0.718c0.319,0.488,0.741,0.908,1.119,1.349C21.045,33.348,21.093,33.335,21.122,33.305z M2.562,6.435
	c-0.417,1.898-0.163,3.768,0.346,5.611c1.24,4.493,3.453,8.53,5.969,12.402c5.68,8.741,12.619,16.422,20.119,23.618
	c0.851,0.817,1.736,1.599,2.621,2.411c0.581-0.489,1.099-0.926,1.654-1.393c-0.198-0.187-0.359-0.342-0.523-0.493
	c-7.614-6.974-14.677-14.443-20.568-22.959C9.736,22.1,7.452,18.474,5.881,14.45c-0.783-2.005-1.45-4.048-1.422-6.227
	c0.018-1.388,0.343-2.686,1.769-3.377c0.114-0.055,0.23-0.225,0.243-0.351c0.057-0.561,0.077-1.127,0.114-1.746
	C4.643,2.872,3.017,4.36,2.562,6.435z M28.467,35.015c-0.006,3.617,2.964,6.61,6.555,6.605c3.564-0.004,6.541-2.976,6.554-6.541
	c0.012-3.59-2.977-6.568-6.593-6.568C31.469,28.511,28.472,31.502,28.467,35.015z M35.05,30.655c2.453,0.005,4.39,1.982,4.382,4.474
	c-0.007,2.375-1.993,4.348-4.376,4.347c-2.486-0.001-4.446-1.946-4.446-4.411C30.611,32.593,32.566,30.65,35.05,30.655z
	 M38.407,53.457c-0.561,0.482-1.093,0.937-1.663,1.426c0.204,0.181,0.349,0.321,0.505,0.447c3.167,2.549,6.456,4.928,9.947,7.017
	c3.254,1.947,6.617,3.668,10.292,4.697c0.558,0.156,1.126,0.275,1.772,0.431c-0.068-0.809-0.124-1.481-0.182-2.167
	C51.234,63.035,44.774,58.329,38.407,53.457z M65.367,59.123c0.704,0.052,1.397,0.103,2.327,0.172
	c-0.622-1.788-1.106-3.474-1.786-5.077c-2.108-4.972-5.139-9.396-8.337-13.712c-0.892-1.204-1.826-2.376-2.793-3.629
	c-0.507,0.572-0.94,1.061-1.375,1.553C58.256,44.909,63.101,51.272,65.367,59.123z M8.674,54.914
	c0.038-2.378-1.966-4.518-4.326-4.454c-2.546,0.069-4.324,1.802-4.386,4.308c-0.058,2.335,2.022,4.376,4.413,4.396
	C6.688,59.183,8.637,57.257,8.674,54.914z M4.261,57.022c-1.202-0.011-2.179-1.039-2.165-2.276c0.014-1.19,1.01-2.17,2.197-2.161
	c1.254,0.01,2.266,1.037,2.241,2.276C6.509,56.082,5.508,57.034,4.261,57.022z M13.091,0c-2.455,0.009-4.415,1.894-4.344,4.349
	c0.077,2.667,1.807,4.271,4.331,4.357c2.264,0.077,4.377-2.03,4.373-4.229C17.446,2.066,15.425-0.008,13.091,0z M15.306,4.331
	c0,1.259-1.006,2.263-2.252,2.246c-1.219-0.017-2.186-1.009-2.186-2.243c0.001-1.199,1.013-2.201,2.217-2.194
	C14.332,2.147,15.306,3.108,15.306,4.331z M65.805,10.985c-2.475,0.114-4.429,1.794-4.436,4.357
	c-0.006,2.334,2.068,4.356,4.399,4.343c2.28-0.012,4.323-2.08,4.317-4.369C70.078,13.088,67.989,10.885,65.805,10.985z
	 M65.714,17.544c-1.233-0.019-2.217-1.046-2.208-2.304c0.009-1.278,1.009-2.29,2.233-2.261c1.268,0.03,2.219,1.019,2.205,2.295
	C67.93,16.555,66.941,17.563,65.714,17.544z M70.085,65.653c0.005-2.246-2.132-4.265-4.491-4.243
	c-2.314,0.021-4.239,1.908-4.228,4.145c0.011,2.451,2.012,4.457,4.43,4.445C68.129,69.988,70.08,68.01,70.085,65.653z
	 M65.697,67.988c-1.22-0.016-2.219-1.032-2.19-2.227c0.032-1.305,1.139-2.368,2.434-2.335c1.155,0.029,2.023,1.07,2.003,2.401
	C67.925,67.078,66.962,68.005,65.697,67.988z M49.185,33.199c0.354-0.4,0.797-0.902,1.255-1.42
	c-3.872-4.292-7.869-8.316-12.134-12.12c-0.576,0.481-1.096,0.915-1.574,1.314C40.884,25.049,45.015,29.105,49.185,33.199z
	 M19.634,5.978c-0.294,0.708-0.555,1.335-0.838,2.015c4.564,2.493,8.853,5.402,12.891,8.669c0.545-0.502,1.042-0.96,1.597-1.472
	C28.966,11.722,24.533,8.524,19.634,5.978z M16.543,38.318c-0.361-0.404-0.795-0.89-1.276-1.428
	c-3.118,3.754-5.865,7.646-8.234,11.819c0.621,0.395,1.175,0.747,1.653,1.051C11.311,45.937,13.911,42.15,16.543,38.318z"/>
</svg>
